{
  "asset": {
    "version": "2.0",
    "generator": "3dpea GLTFExporter"
  },
  "scenes": [
    {
      "name": "AuxScene",
      "nodes": [
        1
      ]
    }
  ],
  "scene": 0,
  "nodes": [
    {
      "matrix": [
        0.5224201083183289,
        0,
        0,
        0,
        0,
        0.5224201083183289,
        0,
        0,
        0,
        0,
        0.5224201083183289,
        0,
        0,
        0,
        0,
        1
      ],
      "name": "Low Poly Cha",
      "mesh": 0
    },
    {
      "children": [
        0
      ]
    }
  ],
  "bufferViews": [
    {
      "buffer": 0,
      "byteOffset": 0,
      "byteLength": 33804,
      "target": 34962,
      "byteStride": 12
    },
    {
      "buffer": 0,
      "byteOffset": 33804,
      "byteLength": 22536,
      "target": 34962,
      "byteStride": 8
    },
    {
      "buffer": 0,
      "byteOffset": 56340,
      "byteLength": 33804,
      "target": 34962,
      "byteStride": 12
    },
    {
      "buffer": 0,
      "byteOffset": 90144,
      "byteLength": 11808,
      "target": 34963
    }
  ],
  "buffers": [
    {
      "byteLength": 101952,
      "uri": "data:application/octet-stream;base64,"
    }
  ],
  "accessors": [
    {
      "bufferView": 0,
      "componentType": 5126,
      "count": 2817,
      "max": [
        1.7906100749969482,
        0.49379459023475647,
        2.774636745452881
      ],
      "min": [
        -1.7906100749969482,
        -0.6180339455604553,
        -3.185421943664551
      ],
      "type": "VEC3"
    },
    {
      "bufferView": 1,
      "componentType": 5126,
      "count": 2817,
      "max": [
        1.0000009536743164,
        1.0000029802322388
      ],
      "min": [
        -9.999999974752427e-7,
        -0.0000019999999949504854
      ],
      "type": "VEC2"
    },
    {
      "bufferView": 2,
      "componentType": 5126,
      "count": 2817,
      "max": [
        0.9999488592147827,
        0.9999208450317383,
        0.9997116923332214
      ],
      "min": [
        -0.9999488592147827,
        -0.999907374382019,
        -0.9999637007713318
      ],
      "type": "VEC3"
    },
    {
      "bufferView": 3,
      "componentType": 5123,
      "count": 5904,
      "max": [
        2816
      ],
      "min": [
        0
      ],
      "type": "SCALAR"
    }
  ],
  "materials": [
    {
      "pbrMetallicRoughness": {
        "baseColorFactor": [
          0.7991027380100881,
          0.7991027380100881,
          0.7991027380100881,
          1
        ],
        "metallicFactor": 0.5,
        "roughnessFactor": 0.94140625
      },
      "name": "Material"
    }
  ],
  "meshes": [
    {
      "primitives": [
        {
          "mode": 4,
          "attributes": {
            "POSITION": 0,
            "TEXCOORD_0": 1,
            "NORMAL": 2
          },
          "indices": 3,
          "material": 0
        }
      ]
    }
  ]
}